PathFileType	4	(X/Y/Z)	T1_P2_NoVision_Movement_3_0-732.trc
DataRate	CameraRate	NumFrames	NumMarkers	Units	OrigDataRate	OrigDataStartFrame	OrigNumFrames
60	60	4	27	m	60	366	732
Frame#	Time	RHip			RKnee			RAnkle			RBigToe			RSmallToe			RHeel			LHip			LKnee			LAnkle			LBigToe			LSmallToe			LHeel			Neck			Head			Nose			RShoulder			RElbow			RWrist			RThumb			RIndex			RPinky			LShoulder			LElbow			LWrist			LThumb			LIndex			LPinky		
		X1	Y1	Z1	X2	Y2	Z2	X3	Y3	Z3	X4	Y4	Z4	X5	Y5	Z5	X6	Y6	Z6	X7	Y7	Z7	X8	Y8	Z8	X9	Y9	Z9	X10	Y10	Z10	X11	Y11	Z11	X12	Y12	Z12	X13	Y13	Z13	X14	Y14	Z14	X15	Y15	Z15	X16	Y16	Z16	X17	Y17	Z17	X18	Y18	Z18	X19	Y19	Z19	X20	Y20	Z20	X21	Y21	Z21	X22	Y22	Z22	X23	Y23	Z23	X24	Y24	Z24	X25	Y25	Z25	X26	Y26	Z26	X27	Y27	Z27
367	6.116666666666666	468.755961513216	3649.6429070590143	571.1739678576803	843.8866576618228	3641.759770879966	558.619341642436	1234.7810244736752	3698.963789960395	620.9042646755106	1331.343533608524	3630.860390889722	608.3218137769559	1295.9676828722143	3625.376249775095	542.6230663605334	1263.3455971124777	3689.8137500640555	624.3269841975648	467.41521639011336	3524.895589589586	744.0679394284576	876.9525938610041	3549.7629982573185	746.5983100102825	1226.4953951352377	3591.1048571563815	725.3314218823264	1320.5879611694247	3548.5139884062924	673.5838114668554	1278.0380402493051	3466.337837468963	704.858427926239	1268.3456038222334	3616.798746859232	719.5250119466963	-125.92964106699272	3567.1092860195536	679.5571997922714	-384.51708058655026	3508.811942610985	641.3928132752498	-235.88409624165863	3439.475206523531	604.2084607866904	-42.835564953788975	3645.9658411974115	547.6384622138077	213.25342001052778	3780.616285593787	515.3230706357108	444.2492214544503	3656.0515943575933	413.7318941386814	569.6438545933141	3546.7541511452337	395.601164915548	605.7494969143103	3613.7933268817605	394.9235711984834	591.4375229702607	3681.3660179497915	391.73977950698566	-21.751895317523488	3516.3024465216204	846.6297528689461	243.64252420857966	3466.4053147380796	865.8026419217325	489.49291667517434	3440.113570015008	859.0520955429829	590.8546379901885	3430.1126564555134	818.5528169534629	601.3000497944998	3405.472941461051	825.6156685421911	602.0803541188602	3393.4672313072074	866.936373739707
368	6.133333333333334	467.8067999104674	3649.8935421750416	569.4582456699671	844.7670471376618	3642.3069132843693	560.9500891503267	1233.7833042628995	3700.3191946302163	621.7488836716012	1328.107123624015	3627.298382058383	606.3115952693904	1294.9076675421068	3621.8067723892423	542.1086672335219	1261.8725450950437	3689.984724325186	623.9579283509257	466.64257145509237	3527.2941797396834	745.3436588849288	876.5576882266763	3549.3489268184176	746.8825940211543	1225.000843837272	3590.9076980731065	724.0634398143847	1321.3963473177325	3553.015751036148	673.2066439240309	1279.4142368393034	3469.7736497954756	705.9016119627142	1267.8132696242828	3616.6965217481884	719.3934676520105	-125.97935770315223	3565.447188299788	678.2572134162139	-383.56384984605666	3505.7791176153282	640.2194511480131	-235.2259223369807	3438.876520262486	603.5384980028834	-42.11338733790947	3646.4080300154424	547.7115682779934	212.59947679570033	3779.3074542913037	514.836866993687	443.9700546829021	3656.693208031823	413.75998638980604	566.5496894409772	3539.898331533919	394.64987022149575	601.8505303678563	3600.362099264999	392.4744721143571	589.8376089360495	3680.6601065626537	392.5519844879874	-21.041924620711747	3514.5945037754327	846.1688257818067	243.54831511725016	3463.4581472497475	862.8713255719047	488.96214685229245	3437.7463407434034	856.7603084577609	591.8402372447329	3429.5935037907993	818.2055611075257	602.3949015877422	3405.4318107670497	825.7397177358763	603.4528846364774	3394.0760212103405	866.6651415140806
369	6.15	466.70215991831856	3652.3950014945194	569.7135172741588	843.5932500499384	3638.111169450961	559.7984320584342	1233.0170731046283	3702.655983856789	622.9899459148528	1324.8026513334116	3621.090874748268	603.6997800482003	1294.4532976455998	3619.24225809143	542.7620667333075	1260.8144632650883	3691.621190824256	624.7234930524767	464.185804060863	3529.185882442211	747.8541325923984	875.0133776720834	3544.7444450550734	745.3234450426993	1223.0412519432143	3590.524439145517	722.4691534882701	1325.23191933196	3563.4680844014138	676.6511844915121	1279.6704390078828	3472.819088597408	706.6368383075268	1267.650712974501	3616.6943386525527	719.3483136553372	-126.08794745505263	3561.200929816782	674.6666301059643	-382.83836090112504	3500.424103743522	637.4898916442845	-234.77612215267413	3437.046241371728	601.8248950807753	-41.1967128941242	3647.0425948675593	547.8455260090158	213.2792667022224	3777.512650093342	514.0456477932122	443.9333399949487	3656.9856803651073	413.7718223484969	565.2022385883906	3537.114852887048	395.29139726428764	599.1798153914344	3590.3912450748694	391.5584854081823	589.5234790803329	3680.202079090191	393.3810706867188	-19.373491095950637	3515.6411131381624	846.6606038957947	243.45015866028893	3459.8016467296156	859.2475222548679	488.6375881936581	3436.141517947068	855.2200043044888	593.434303367852	3428.136626163224	817.2650383317181	603.9323572703835	3404.9118514503884	825.6549629638665	605.835517320823	3396.6655012541114	868.6277215225577
370	6.166666666666667	465.76691084314405	3653.4230175061734	570.0781435084826	841.1684383960421	3631.4848761522862	555.6790789704431	1232.387637753429	3704.5976586821025	623.9701118740597	1321.6947648588982	3614.4853723592323	601.567832990356	1294.4220538455397	3618.016174486067	544.172883400016	1260.1823556300926	3693.254343739193	625.8175119065035	461.1855144288305	3529.1300524444646	749.6262531473178	872.7468540014264	3539.0338876984415	743.2292327413713	1221.3084631555234	3589.8988297816204	721.5173223246761	1330.0732051663858	3574.528375515129	682.8515911880356	1278.9110709554536	3473.9920946522166	706.7394861825161	1267.583612327837	3616.6686052880236	719.304789836907	-126.22706638087382	3555.623923963155	669.8528642735466	-382.74537057464124	3494.483598423498	633.5528324307558	-234.599554063341	3433.592877181487	598.751419015489	-40.38169294723669	3647.660325317922	547.9761247351283	215.56781831560096	3776.362168205259	513.3842261774444	444.34606343568413	3656.517647194285	413.9798812630338	564.9941477180345	3536.6928947998263	396.41136434894406	597.1444362506697	3582.6801264741143	391.1254961899828	590.8196905864304	3680.365130276714	393.9735821121689	-17.930891723044162	3516.937667114396	847.1956016119399	243.86541001045583	3455.625581815032	855.065408746879	488.6018679554494	3435.6578660378655	854.7932495617662	595.0432641867735	3426.926868647635	816.5616849502939	605.2589460410992	3402.9381914348833	825.0601414979311	607.456128914766	3397.639057736559	870.5134618681823
